<?xml version="1.0" encoding="UTF-8"?>
<svg xmlns="http://www.w3.org/2000/svg" xmlns:xlink="http://www.w3.org/1999/xlink" width="800px" height="800px" viewBox="0 0 600 600" version="1.1">
<g id="surface1">
<path style=" stroke:none;fill-rule:evenodd;fill:rgb(0%,0%,0%);fill-opacity:1;" d="M 570 120 C 536.863281 111.714844 516.714844 78.136719 525 45 C 533.285156 11.863281 566.863281 -8.285156 600 0 L 60 0 C 60 -149.117188 180.882812 -270 330 -270 C 479.117188 -270 600 -149.117188 600 0 L 1080 0 C 1080 132.546875 972.546875 240 840 240 C 707.453125 240 600 132.546875 600 0 Z M 570 300 C 487.15625 291.714844 426.714844 217.84375 435 135 C 443.285156 52.15625 517.15625 -8.285156 600 0 L 60 0 C 60 -149.117188 180.882812 -270 330 -270 C 479.117188 -270 600 -149.117188 600 0 L 1080 0 C 1080 132.546875 972.546875 240 840 240 C 707.453125 240 600 132.546875 600 0 Z M 540 510 C 399.167969 493.429688 298.429688 365.832031 315 225 C 331.570312 84.167969 459.167969 -16.570312 600 0 L 60 0 C 60 -149.117188 180.882812 -270 330 -270 C 479.117188 -270 600 -149.117188 600 0 L 1080 0 Z M 540 510 "/>
</g>
</svg>
